<svg xmlns="http://www.w3.org/2000/svg" width="150" height="150" viewBox="0 0 150 150">
  <path fill="rgb(31,38,49)" fill-rule="evenodd" d="M3 0h144c1.65574507 0 3 1.34425493 3 3v144c0 1.65574507-1.34425493 3-3 3H3c-1.65574507 0-3-1.34425493-3-3V3c0-1.65574507 1.34425493-3 3-3z"/>
  <g>
    <path fill="rgb(61,180,242)" fill-rule="evenodd" d="M127.90339168 35.81545836C120.46044748 29.23660594 105.70515703 28.5 103.39109994 28.5c-2.4698936 0-17.80438036 1.11085452-26.00738823 7.3381903-4.05044224 3.07490428-8.42166364 10.74633016-8.36463949 18.24194001.05431462 7.1394511 4.3391412 14.09564378 8.39485593 17.699278 8.37151132 7.43835961 21.84546457 10.76455756 30.52140384 14.0648479 3.1200435 1.18685127 8.11184707 4.12536295 8.11184707 10.31435097 0 3.29934674-2.32788755 9.48739115-11.4169668 9.48739115-15.2861787 0-15.87445522-8.20329003-15.98060443-8.69222552-.31885309-1.4686741-6.376317 8.29022557-5.50267376 15.70534252.82627993 7.013117 10.72462843 8.7946314 20.2394309 8.84035105 9.35511862.04495234 19.56128816-2.75568689 24.4221755-6.31210678 9.65795056-7.0661435 9.65795056-17.12434245 9.65795056-19.02875242 0-1.68243254.62805843-14.4397139-12.98152445-22.30067129-5.38194167-3.10863415-13.76990167-6.23237663-23.15987403-9.46556696-5.4091561-1.8625008-10.7416391-4.95043553-10.7416391-10.31340735s4.02904955-9.48833476 12.29215643-9.48833476c4.86382365 0 13.17156918 1.23760888 13.17156918 11.5548964 2.56245388 0 17.50283078.02793507 21.45282094.02793507-.03350897-11.58283147-5.52954575-16.76310472-9.59660832-20.35799993z"/>
    <path fill="rgb(255,255,255)" fill-rule="evenodd" d="M35.6358385 120.49730783H12.5l33.05119832-90.75798756h20.65699896l33.87747446 90.75798756H76.53669357L70.75273514 103.583317H41.00665728l-5.37081877 16.91399083zm30.15921753-33.82798167H46.37747765L55.8796978 55.3165686l9.91535823 31.35275756z"/>
  </g>
</svg>
