<svg xmlns="http://www.w3.org/2000/svg" width="150" height="112" viewBox="0 0 150 112">
  <g>
    <path fill="rgb(61,180,242)" fill-rule="evenodd" d="M138.48407002 8.81001437C129.55253698.88709533 111.84618843 0 109.06931993 0c-2.96387232 0-21.36525643 1.3378033-31.20886588 8.83739048-4.86053068 3.70311051-10.10599637 12.94181695-10.03756738 21.96878796.06517754 8.59804864 5.20696943 16.97539896 10.0738271 21.31525953 10.0458136 8.95802448 26.2145575 12.96376824 36.62568462 16.93831145 3.7440522 1.42932625 9.73421648 4.96817903 9.73421648 12.42158395 0 3.97340683-2.79346506 11.42567537-13.70036015 11.42567537-18.34341446 0-19.04934627-9.879231-19.17672532-10.46805654-.38262371-1.7687258-7.65158041 9.98392757-6.60320851 18.91396088.99153591 8.44590434 12.86955411 10.59138407 24.28731708 10.64644428 11.22614234.05413615 23.47354579-3.31867668 29.30661059-7.60167698 11.58954067-8.50976422 11.58954067-20.62286403 11.58954067-22.916347 0-2.02615532.75367012-17.38976298-15.57782933-26.85672241-6.45833-3.74373145-16.523882-7.50565789-27.79184884-11.39939247-6.49098731-2.24301173-12.88996692-5.96181483-12.88996692-12.42044756s4.83485946-11.42681176 14.75058771-11.42681176c5.83658838 0 15.80588302 1.49045371 15.80588302 13.91557416 3.07494465 0 21.00339694.03364224 25.74338513.03364224-.04021077-13.9492164-6.6354549-20.18782505-11.51592998-24.5171612z"/>
    <path fill="rgb(255,255,255)" fill-rule="evenodd" d="M27.76300567 110.79245323H0L39.66143667 1.4925147H64.4498346l40.6529726 109.29993853H76.84403354l-6.94075142-20.369534h-35.695293l-6.44498346 20.369534zm36.19106096-40.739068H40.6529726l11.40266304-37.75816058 11.898431 37.75816058z"/>
  </g>
</svg>
